<?xml version="1.0" encoding="utf-8"?>
<!-- Generator: Adobe Illustrator 15.0.2, SVG Export Plug-In . SVG Version: 6.00 Build 0)  -->
<!DOCTYPE svg PUBLIC "-//W3C//DTD SVG 1.1//EN" "http://www.w3.org/Graphics/SVG/1.1/DTD/svg11.dtd">
<svg version="1.1" id="Layer_1" xmlns="http://www.w3.org/2000/svg" xmlns:xlink="http://www.w3.org/1999/xlink" x="0px" y="0px"
	 width="446px" height="105.702px" viewBox="0 0 446 105.702" enable-background="new 0 0 446 105.702" xml:space="preserve">
<g>
	<path fill="#FEBC11" d="M114.157,18.939l9.059-18.932L103.614,0l-7.016,15.909C102.837,16.627,108.74,17.647,114.157,18.939"/>
	<path fill="#FEBC11" d="M85.734,41.964L73.867,69.842L44.39,0.002L24.795,0.005L73.85,105.702h0.035l28.553-61.337
		C97.616,43.278,92,42.479,85.734,41.964"/>
	<path fill="#FEBC11" d="M51.641,75.205C30.298,71.967,15.249,64.166,15.249,55.04c0-6.153,7.703-11.707,19.871-15.512L29.422,27.22
		C11.563,32.379,0,40.582,0,49.826c0,12.787,22.099,23.579,52.425,27.081L51.641,75.205z"/>
	<path fill="#FEBC11" d="M73.631,21.548c-4.001,0-8.08,0.113-11.906,0.347l5.311,12.559c2.115-0.091,4.418-0.117,6.595-0.117
		c32.245,0,58.388,9.679,58.388,20.704c0,9.069-14.878,16.838-36.022,20.105L95.2,76.872c30.141-3.55,52.072-14.308,52.072-27.046
		C147.272,34.208,114.305,21.548,73.631,21.548"/>
	<polygon fill="#FFFFFF" points="188.773,65.973 192.093,65.973 209.229,25.952 202.759,25.952 190.916,55.118 190.686,55.118 
		190.614,54.951 178.2,25.952 171.14,25.952 	"/>
	<rect x="217.791" y="25.952" fill="#FFFFFF" width="6.181" height="39.87"/>
	<rect x="217.791" y="11.389" fill="#FFFFFF" width="6.181" height="5.947"/>
	<path fill="#FFFFFF" d="M258.797,41.238c-11.734,0-25.206,1.581-25.206,13.889c0,8.102,7.412,11.729,14.759,11.729
		c5.537,0,10.174-2.471,13.062-6.957l0.086-0.127l0.602-0.853v1.133c0,1.605,0,4,0.379,5.77h5.924
		c-0.349-2.225-0.551-4.654-0.551-6.72V41.74c0-11.638-5.136-16.824-16.658-16.824c-6.159,0-11.854,2.163-15.669,5.944l3.85,4.016
		c3.097-2.737,7.45-4.299,11.998-4.299c6.639,0,10.296,3.258,10.296,9.174v1.488H258.797z M249.476,61.708
		c-6.009,0-9.177-2.516-9.177-7.273c0-5.267,4.965-8.054,14.354-8.054h7.015v2.875C261.47,56.823,256.686,61.708,249.476,61.708"/>
	<path fill="#FFFFFF" d="M352.21,24.914c-11.854,0-20.456,8.82-20.456,20.968c0,12.35,8.301,20.974,20.196,20.974
		c7.743,0,13.175-2.492,17.575-8.05l-4.661-3.639c-3.36,4.167-7.354,6.024-12.914,6.024c-7.132,0-12.936-5.681-13.5-13.21
		l-0.021-0.298h32.68v-1.885C371.109,32.916,363.869,24.914,352.21,24.914 M364.416,42.536h-26l0.039-0.312
		c0.913-7.182,6.083-11.648,13.495-11.648s12.182,4.472,12.456,11.676L364.416,42.536z"/>
	<path fill="#FFFFFF" d="M376.736,59.675c3.63,5.093,8.096,7.181,15.344,7.181c7.676,0,15.878-3.266,15.878-12.42
		c0-8.186-6.246-10.52-12.993-11.819c-5.414-1.049-10.416-2.52-10.416-6.147c0-3.869,4.137-5.893,8.223-5.893
		c3.627,0,6.683,1.675,8.633,4.726l5.167-3.415c-2.508-4.5-7.243-6.974-13.372-6.974c-7.371,0-14.835,3.998-14.835,11.645
		c0,8.322,6.816,9.854,14.034,11.476c3.948,0.869,8.856,1.947,8.856,6.66c0,4.488-4.609,6.497-9.175,6.497
		c-5.202,0-8.188-2.662-10.41-5.334L376.736,59.675z"/>
	<path fill="#FFFFFF" d="M415.64,17.365v36.099c0,8.615,1.735,13.283,10.869,13.283c2.303,0,3.134-0.373,5.156-1.277l0.202-0.092
		l-0.236-5.51c-1.666,0.856-2.762,1.215-4.633,1.215c-1.89,0-3.21-0.415-4.038-1.27c-1.313-1.351-1.249-3.638-1.171-6.283
		c0.018-0.658,0.035-1.348,0.035-2.056V30.984h9.704v-5.14h-9.704V14.427L415.64,17.365z"/>
	<path fill="#FFFFFF" d="M310.962,65.494h3.083l15.383-40.024h-7.047l-9.406,28.1h-0.209l-0.247-0.554l-10.263-26.957h-3.217
		l-9.876,27.769h-0.208l-0.068-0.185l-9.976-28.173h-7.031l15.361,40.013c0.872-0.051,1.54-0.031,2.206-0.007
		c0.291,0.007,0.579,0.015,0.887,0.018l10.317-26.652L310.962,65.494z"/>
	<polygon fill="#FFFFFF" points="435.177,15.526 433.041,15.526 433.041,14.686 438.205,14.686 438.205,15.526 436.072,15.526 
		436.072,21.309 435.177,21.309 	"/>
	<polygon fill="#FFFFFF" points="439.101,14.686 440.439,14.686 442.541,19.697 442.582,19.697 444.666,14.686 446,14.686 
		446,21.309 445.107,21.309 445.107,15.865 445.087,15.865 442.849,21.309 442.253,21.309 440.019,15.865 439.998,15.865 
		439.998,21.309 439.101,21.309 	"/>
	<path fill="#FFFFFF" d="M195.477,84.133c-0.995-1.297-2.642-2.022-4.264-2.022c-3.965,0-6.583,3.168-6.583,7.186
		c0,3.716,2.467,6.885,6.583,6.885c2.02,0,3.569-0.896,4.613-2.367l2.022,1.519c-0.527,0.726-2.645,3.091-6.686,3.091
		c-5.609,0-9.079-4.688-9.079-9.127c0-5.484,3.768-9.427,9.205-9.427c2.321,0,4.764,0.868,6.184,2.74L195.477,84.133z"/>
	<path fill="#FFFFFF" d="M202.242,92.89c0,2.066,1.92,3.438,3.99,3.438c1.372,0,2.368-0.694,3.241-1.77l1.694,1.298
		c-1.246,1.619-2.964,2.419-5.236,2.419c-3.74,0-6.083-2.696-6.083-6.211c0-3.542,2.569-6.211,6.108-6.211
		c4.168,0,5.762,3.192,5.762,6.234v0.802H202.242z M209.322,91.09c-0.047-1.971-1.146-3.436-3.415-3.436
		c-2.218,0-3.665,1.867-3.665,3.436H209.322z"/>
	<path fill="#FFFFFF" d="M214.79,86.156h2.242v1.82h0.048c0.574-1.253,2.074-2.122,3.895-2.122c2.293,0,4.287,1.372,4.287,4.517
		v7.604h-2.244v-6.987c0-2.21-1.27-3.035-2.69-3.035c-1.872,0-3.295,1.194-3.295,3.938v6.084h-2.242V86.156z"/>
	<path fill="#FFFFFF" d="M235.367,88.098h-3.221v5.362c0,1.321,0,2.721,1.697,2.721c0.523,0,1.15-0.079,1.599-0.353v2.047
		c-0.526,0.298-1.571,0.397-2.02,0.397c-3.47,0-3.517-2.119-3.517-4.015v-6.16h-2.594v-1.942h2.594v-3.319h2.24v3.319h3.221V88.098z
		"/>
	<path fill="#FFFFFF" d="M240.332,92.89c0,2.066,1.92,3.438,3.99,3.438c1.372,0,2.368-0.694,3.24-1.77l1.697,1.298
		c-1.241,1.619-2.967,2.419-5.235,2.419c-3.74,0-6.085-2.696-6.085-6.211c0-3.542,2.566-6.211,6.105-6.211
		c4.168,0,5.767,3.192,5.767,6.234v0.802H240.332z M247.412,91.09c-0.048-1.971-1.143-3.436-3.415-3.436
		c-2.218,0-3.665,1.867-3.665,3.436H247.412z"/>
	<path fill="#FFFFFF" d="M252.878,86.156h2.244v1.82h0.052c0.575-1.253,2.07-2.122,3.541-2.122c0.354,0,0.698,0.052,0.996,0.15
		l-0.099,2.419c-0.37-0.099-0.75-0.178-1.096-0.178c-2.193,0-3.395,1.201-3.395,3.792v5.937h-2.244V86.156z"/>
	<path fill="#FFFFFF" d="M263.731,92.89c0,2.066,1.92,3.438,3.99,3.438c1.372,0,2.371-0.694,3.244-1.77l1.693,1.298
		c-1.241,1.619-2.967,2.419-5.238,2.419c-3.737,0-6.081-2.696-6.081-6.211c0-3.542,2.566-6.211,6.105-6.211
		c4.168,0,5.766,3.192,5.766,6.234v0.802H263.731z M270.815,91.09c-0.052-1.971-1.146-3.436-3.419-3.436
		c-2.221,0-3.665,1.867-3.665,3.436H270.815z"/>
	<path fill="#FFFFFF" d="M288.124,97.974h-2.245v-1.696h-0.048c-0.872,1.272-2.519,1.998-4.114,1.998
		c-3.668,0-6.012-2.717-6.012-6.211c0-3.542,2.368-6.211,6.012-6.211c1.694,0,3.313,0.773,4.114,1.994h0.048V79.12h2.245V97.974z
		 M285.879,92.065c0-2.392-1.492-4.116-3.891-4.116c-2.392,0-3.891,1.725-3.891,4.116s1.499,4.113,3.891,4.113
		C284.387,96.178,285.879,94.457,285.879,92.065"/>
	<path fill="#FFFFFF" d="M305.438,80.317h2.166l7.56,17.657h-2.792l-1.77-4.362h-8.407l-1.745,4.362h-2.793L305.438,80.317z
		 M309.727,91.514l-3.295-8.107h-0.049l-3.339,8.107H309.727z"/>
	<path fill="#FFFFFF" d="M317.389,86.156h2.244v1.82h0.048c0.575-1.253,2.071-2.122,3.546-2.122c0.346,0,0.694,0.052,0.996,0.15
		l-0.104,2.419c-0.373-0.099-0.745-0.178-1.095-0.178c-2.196,0-3.392,1.201-3.392,3.792v5.937h-2.244V86.156z"/>
	<path fill="#FFFFFF" d="M332.206,85.854c3.515,0,6.285,2.766,6.285,6.211c0,3.438-2.771,6.211-6.285,6.211
		c-3.519,0-6.286-2.772-6.286-6.211C325.92,88.62,328.688,85.854,332.206,85.854 M332.206,96.178c2.391,0,3.887-1.722,3.887-4.113
		s-1.496-4.113-3.887-4.113c-2.399,0-3.895,1.722-3.895,4.113S329.807,96.178,332.206,96.178"/>
	<path fill="#FFFFFF" d="M352.285,97.974h-2.244v-1.82h-0.052c-0.571,1.25-2.07,2.119-3.891,2.119c-2.292,0-4.291-1.372-4.291-4.514
		v-7.608h2.245v6.985c0,2.218,1.273,3.042,2.695,3.042c1.869,0,3.293-1.194,3.293-3.938v-6.089h2.244V97.974z"/>
	<path fill="#FFFFFF" d="M356.177,86.156h2.244v1.82h0.049c0.57-1.253,2.073-2.122,3.891-2.122c2.296,0,4.291,1.372,4.291,4.517
		v7.604h-2.245v-6.987c0-2.21-1.275-3.035-2.693-3.035c-1.871,0-3.292,1.194-3.292,3.938v6.084h-2.244V86.156z"/>
	<path fill="#FFFFFF" d="M382.393,97.974h-2.245v-1.696H380.1c-0.876,1.272-2.522,1.998-4.116,1.998c-3.665,0-6.01-2.717-6.01-6.211
		c0-3.542,2.365-6.211,6.01-6.211c1.697,0,3.312,0.773,4.116,1.994h0.048V79.12h2.245V97.974z M380.147,92.065
		c0-2.392-1.495-4.116-3.891-4.116s-3.892,1.725-3.892,4.116s1.496,4.113,3.892,4.113S380.147,94.457,380.147,92.065"/>
	<polygon fill="#FFFFFF" points="397.959,90.443 391.272,80.317 394.342,80.317 399.156,88.072 404.118,80.317 407.037,80.317 
		400.351,90.443 400.351,97.974 397.959,97.974 	"/>
	<path fill="#FFFFFF" d="M411.701,85.854c3.515,0,6.286,2.766,6.286,6.211c0,3.438-2.771,6.211-6.286,6.211
		c-3.518,0-6.286-2.772-6.286-6.211C405.415,88.62,408.184,85.854,411.701,85.854 M411.701,96.178c2.396,0,3.895-1.722,3.895-4.113
		s-1.499-4.113-3.895-4.113c-2.392,0-3.887,1.722-3.887,4.113S409.31,96.178,411.701,96.178"/>
	<path fill="#FFFFFF" d="M431.532,97.974h-2.241v-1.82h-0.056c-0.567,1.25-2.066,2.119-3.888,2.119
		c-2.296,0-4.294-1.372-4.294-4.514v-7.608h2.248v6.985c0,2.218,1.27,3.042,2.693,3.042c1.872,0,3.296-1.194,3.296-3.938v-6.089
		h2.241V97.974z"/>
</g>
</svg>
